<?xml version="1.0" standalone="no"?>
<!DOCTYPE svg PUBLIC "-//W3C//DTD SVG 20010904//EN"
 "http://www.w3.org/TR/2001/REC-SVG-20010904/DTD/svg10.dtd">
<svg version="1.0" xmlns="http://www.w3.org/2000/svg"
 width="153.000000pt" height="250.000000pt" viewBox="0 0 153.000000 250.000000"
 preserveAspectRatio="xMidYMid meet">

<g transform="translate(0.000000,250.000000) scale(0.100000,-0.100000)"
fill="#000000" stroke="none">
<path d="M652 2474 c-5 -9 -6 -32 -2 -50 9 -40 61 -123 77 -124 16 0 43 -29
43 -46 0 -8 -10 -14 -24 -14 -13 0 -35 -9 -48 -20 l-26 -20 -33 25 c-63 46
-135 67 -145 42 -5 -15 39 -95 60 -109 7 -5 2 -13 -13 -24 -39 -28 -91 -75
-91 -84 0 -4 31 -7 69 -6 38 0 71 -1 74 -4 2 -3 7 -17 10 -31 6 -25 4 -27 -75
-48 -206 -55 -353 -173 -443 -356 -50 -100 -66 -173 -72 -315 -6 -141 8 -214
67 -344 80 -179 235 -343 406 -429 46 -23 113 -81 167 -144 11 -12 23 -40 28
-63 5 -22 20 -58 33 -78 13 -20 40 -81 61 -134 20 -54 41 -98 46 -98 13 0 12
4 -21 82 -16 38 -30 76 -30 84 0 7 23 21 51 31 61 22 193 138 214 191 9 19 14
37 11 39 -2 2 -38 -6 -81 -19 -59 -17 -80 -28 -91 -48 -7 -14 -29 -42 -48 -63
l-33 -37 8 42 c5 24 12 62 15 86 l7 42 82 0 c99 0 185 24 297 82 132 68 251
217 301 373 18 57 22 94 22 199 0 78 -4 130 -10 132 -5 2 -30 -33 -55 -78 -51
-92 -161 -216 -227 -255 -65 -38 -153 -62 -246 -68 -57 -3 -72 -2 -49 4 19 5
39 14 45 20 15 15 -10 41 -40 41 -20 0 -22 3 -13 19 7 14 23 21 52 23 50 4 59
21 21 42 -31 17 -27 19 30 16 28 -1 37 2 37 15 0 8 -7 18 -16 22 -9 3 -14 13
-11 23 2 10 1 24 -4 31 -13 21 -43 -2 -49 -37 -6 -29 -6 -29 -18 -6 -18 31
-52 30 -52 -2 0 -14 7 -32 16 -41 13 -12 14 -18 4 -31 -11 -13 -14 -12 -24 8
-6 13 -18 23 -26 23 -21 0 -25 -49 -6 -65 17 -13 22 -40 7 -40 -5 0 -11 9 -14
21 -4 15 -12 20 -29 17 -33 -4 -34 -35 -2 -69 22 -23 24 -29 11 -29 -10 0 -20
7 -24 15 -4 11 -16 15 -37 13 -29 -3 -31 -1 -29 26 2 34 64 140 123 213 37 45
50 53 94 63 28 6 60 17 72 25 49 32 57 137 12 148 -29 8 -83 -16 -102 -45 -9
-13 -24 -49 -35 -80 -11 -31 -39 -80 -63 -110 -24 -29 -56 -74 -71 -100 -15
-27 -29 -48 -31 -48 -13 0 22 92 46 123 43 56 57 95 51 150 -5 42 -2 53 30
101 42 63 68 73 133 51 82 -28 137 -13 192 51 29 34 33 44 30 89 -3 45 -5 50
-29 53 -22 3 -25 7 -21 32 3 25 0 31 -24 42 -16 7 -43 23 -60 35 -34 25 -64
29 -82 11 -8 -8 -12 -8 -12 -1 0 20 -56 36 -80 23 -12 -6 -25 -9 -28 -5 -7 7
26 38 102 95 62 47 136 187 127 242 -2 16 -60 -15 -95 -51 l-37 -38 -59 16
c-33 9 -60 19 -60 23 0 19 59 70 95 82 57 19 72 52 51 114 -18 53 -61 102 -88
102 -24 0 -95 -36 -100 -50 -2 -7 -12 -6 -31 2 -27 13 -47 64 -32 87 3 6 3 32
-1 57 -12 81 -104 149 -132 98z m55 -120 c8 -13 13 -24 10 -24 -14 0 -57 89
-56 116 0 24 3 21 15 -20 9 -27 22 -60 31 -72z m23 40 c23 -62 23 -64 12 -64
-9 0 -38 55 -45 85 -3 11 -8 29 -13 40 -7 18 -6 18 9 7 9 -8 25 -38 37 -68z
m30 16 c6 -15 10 -39 8 -52 -3 -19 -7 -14 -18 22 -8 25 -21 56 -29 70 -15 25
-15 25 6 7 12 -10 26 -31 33 -47z m223 -170 c31 -36 51 -93 43 -123 -3 -14
-18 -27 -40 -35 -30 -11 -39 -11 -59 3 -14 9 -27 30 -31 47 -3 18 -16 42 -27
54 -25 27 -20 38 29 64 49 26 56 25 85 -10z m-418 -31 c17 -15 48 -39 69 -53
l39 -26 -35 0 c-29 0 -43 8 -76 44 -22 24 -45 54 -53 67 -12 23 -11 23 7 10
10 -8 33 -27 49 -42z m53 11 c34 -22 62 -47 62 -55 0 -28 -33 -11 -105 53 -60
53 -38 54 43 2z m215 -19 c33 -29 62 -95 50 -114 -7 -12 -32 31 -33 56 0 9 -7
17 -15 17 -19 0 -19 -9 -1 -29 7 -9 17 -27 20 -41 7 -24 6 -24 -8 -6 -8 10
-17 24 -19 30 -2 6 -7 8 -11 4 -4 -3 0 -18 10 -33 15 -23 15 -28 3 -36 -20
-12 -24 -11 -44 11 -19 21 -45 27 -45 10 0 -6 12 -15 28 -21 24 -9 25 -11 9
-20 -22 -13 -54 -3 -66 19 -13 25 -18 149 -6 161 6 5 26 11 45 14 19 2 38 5
42 5 4 1 22 -11 41 -27z m-243 -76 c10 -12 10 -15 -1 -15 -15 -1 -99 -39 -86
-40 5 0 31 7 58 16 55 18 69 15 44 -10 -16 -16 -95 -23 -108 -9 -6 6 61 72 74
73 4 0 12 -7 19 -15z m94 -35 c-5 -24 -1 -35 24 -60 43 -43 45 -71 7 -82 -61
-17 -86 2 -99 75 -6 33 -3 41 23 67 38 38 52 38 45 0z m246 -28 c0 -29 -137
-111 -161 -96 -18 11 -8 34 18 41 16 3 45 19 67 35 37 27 76 37 76 20z m171
-116 c-17 -31 -31 -62 -31 -70 0 -24 -122 -127 -157 -132 -18 -3 -16 6 7 41
11 17 20 38 20 48 0 27 169 192 182 179 8 -8 1 -27 -21 -66z m-476 3 c14 -21
50 -26 95 -14 25 7 52 13 60 13 8 0 23 3 32 7 20 8 58 -27 58 -54 0 -24 -36
-31 -75 -15 -37 16 -85 18 -85 3 0 -6 9 -13 20 -16 11 -3 20 -8 20 -12 0 -14
-168 -90 -187 -85 -26 7 -55 -22 -51 -51 1 -12 -9 -38 -25 -59 -16 -20 -42
-66 -60 -103 -25 -55 -32 -84 -35 -154 -11 -227 76 -410 249 -522 44 -28 79
-58 79 -67 -1 -8 -7 -44 -15 -80 -8 -36 -14 -82 -15 -102 0 -21 -4 -38 -9 -38
-10 0 -31 86 -31 127 0 55 -79 133 -135 133 -18 0 -18 3 -1 -63 21 -79 38
-108 91 -147 57 -43 75 -75 75 -135 0 -51 -18 -60 -48 -23 -81 100 -108 116
-100 57 4 -25 2 -28 -15 -23 -34 11 -120 64 -184 116 -113 90 -222 253 -275
413 -33 100 -33 304 0 420 68 236 238 403 474 465 88 23 85 23 93 9z m318 -10
c20 -5 37 -14 37 -19 0 -15 -39 -31 -68 -28 -21 2 -28 9 -30 31 -4 30 3 32 61
16z m-99 -116 c21 -26 25 -35 12 -30 -10 4 -21 7 -26 7 -5 0 -22 18 -40 40
l-31 39 28 -9 c16 -6 41 -27 57 -47z m85 15 c-13 -47 -25 -54 -33 -18 -7 38
-1 50 24 50 16 0 17 -4 9 -32z m-49 -4 c0 -22 -2 -25 -15 -14 -8 7 -15 19 -15
26 0 8 7 14 15 14 10 0 15 -10 15 -26z m-28 -53 c32 -7 33 -8 36 -64 2 -46 -1
-63 -17 -84 -24 -29 -26 -56 -10 -137 9 -40 9 -60 1 -68 -7 -7 -12 4 -17 38
-4 27 -15 81 -24 119 -13 50 -15 77 -8 92 20 46 -26 113 -67 97 -24 -9 -13
-66 21 -110 24 -32 58 -135 51 -156 -2 -6 -16 8 -31 31 -16 23 -43 59 -61 79
-18 20 -36 50 -40 65 -4 16 -21 42 -38 57 l-30 28 73 36 74 35 27 -26 c14 -14
41 -28 60 -32z m-249 -35 c33 -14 78 -56 60 -56 -6 0 -16 7 -24 16 -7 8 -29
24 -48 34 -42 22 -35 26 12 6z m197 -40 c-1 -16 -5 -12 -15 13 -19 42 -19 52
0 27 8 -11 15 -29 15 -40z m-25 -5 c11 -36 -11 -17 -24 21 -10 29 -10 31 3 18
7 -8 17 -26 21 -39z m-179 -32 c19 -12 33 -24 30 -26 -8 -8 -74 36 -91 60 -23
32 -17 46 6 15 11 -15 36 -37 55 -49z m25 31 c43 -35 33 -48 -15 -19 -43 25
-67 60 -37 52 10 -3 34 -17 52 -33z m369 -20 c11 -6 23 -30 29 -62 10 -44 9
-54 -5 -67 -15 -15 -16 -14 -9 7 5 17 2 22 -10 22 -12 0 -15 -5 -11 -16 4 -9
4 -26 0 -36 -6 -19 -6 -19 -21 2 -10 14 -21 19 -33 15 -23 -7 -40 21 -40 62 1
31 15 54 45 71 25 14 32 14 55 2z m-423 -27 c28 -22 46 -28 79 -26 40 1 47 -2
89 -49 25 -27 61 -83 81 -123 48 -97 44 -139 -21 -210 -39 -44 -52 -66 -82
-144 -8 -21 -12 -14 -25 51 l-15 77 39 38 c57 57 81 147 42 160 -13 4 -72 -87
-79 -122 -4 -23 0 -19 20 20 14 27 30 54 35 59 18 18 10 -8 -15 -53 -14 -24
-23 -46 -21 -48 3 -3 19 21 36 53 21 40 29 50 25 30 -4 -16 -20 -49 -37 -73
-34 -46 -41 -53 -31 -26 4 10 2 14 -4 10 -6 -4 -15 -1 -20 6 -10 14 -46 104
-64 162 -17 55 -64 122 -100 140 -18 10 -27 20 -23 28 16 27 46 67 50 67 3 0
22 -12 41 -27z m531 4 c20 -13 49 -31 64 -40 34 -21 28 -39 -20 -63 -20 -10
-44 -25 -53 -32 -14 -11 -16 -10 -11 13 3 20 0 27 -16 32 -15 4 -21 15 -24 46
-4 36 5 67 18 67 3 0 21 -11 42 -23z m-208 -112 c5 -6 8 -26 8 -44 -1 -31 -2
-32 -15 -16 -7 11 -12 39 -12 64 1 25 4 37 6 26 3 -11 9 -25 13 -30z m-416
-15 c5 -30 19 -55 52 -90 25 -27 54 -52 64 -55 17 -5 29 -35 76 -183 2 -7 -18
9 -44 36 -44 45 -96 72 -110 57 -4 -3 7 -31 23 -62 21 -38 40 -60 61 -69 17
-7 36 -20 44 -28 7 -9 18 -16 25 -16 13 0 18 -16 31 -95 l6 -40 -22 35 c-21
32 -56 70 -105 112 -29 24 -95 35 -95 15 0 -8 7 -21 16 -28 9 -7 26 -36 39
-65 24 -55 120 -144 156 -144 13 0 19 -7 19 -21 0 -18 -7 -16 -61 23 -155 108
-239 270 -239 459 0 78 33 215 49 205 5 -3 11 -24 15 -46z m54 7 c11 -10 31
-41 46 -70 l27 -52 -36 40 c-20 22 -42 54 -50 70 -7 17 -14 24 -14 17 -1 -19
16 -50 58 -102 l35 -45 -38 35 c-37 35 -57 65 -70 107 -8 26 13 26 42 0z m528
-19 c-7 -35 -22 -56 -32 -45 -3 3 1 16 9 28 9 11 13 28 10 35 -3 8 0 14 7 14
9 0 11 -10 6 -32z m164 22 c14 -8 17 -18 14 -46 -6 -49 -8 -51 -55 -66 -36
-10 -42 -10 -51 5 -5 9 -17 17 -26 17 -9 0 -24 5 -32 10 -13 8 -12 12 7 25 12
8 29 22 37 30 30 31 76 41 106 25z m-260 -34 c9 -25 99 -76 133 -76 40 0 8
-25 -36 -28 -83 -5 -157 48 -143 103 8 32 34 32 46 1z m55 -5 c-3 -6 -11 -11
-17 -11 -6 0 -6 6 2 15 14 17 26 13 15 -4z m-97 -88 c2 -12 -11 -43 -28 -70
-25 -38 -30 -42 -26 -20 4 15 9 47 13 72 4 35 10 45 22 43 9 -2 17 -13 19 -25z
m272 -8 c0 -13 -63 -35 -97 -34 -21 1 -29 3 -18 6 11 2 29 8 40 13 42 18 75
25 75 15z m-185 -145 c-21 -22 -40 -38 -42 -36 -9 8 21 55 41 64 40 20 40 12
1 -28z m44 -3 c-11 -25 -67 -73 -75 -64 -2 2 14 25 37 51 44 50 57 54 38 13z
m-438 -34 c20 -21 36 -45 36 -54 0 -14 -5 -14 -34 4 -37 21 -61 52 -68 86 -3
17 -1 19 13 12 9 -5 33 -27 53 -48z m469 26 c0 -22 -51 -79 -70 -79 -7 0 4 18
24 40 20 22 36 45 36 50 0 6 2 10 5 10 3 0 5 -9 5 -21z m-306 -118 c-26 -50
-49 -89 -51 -87 -11 11 29 121 58 157 49 62 46 33 -7 -70z m71 23 c-6 -35 -61
-106 -97 -125 -13 -7 -4 17 32 84 27 51 50 102 51 113 0 14 3 11 11 -9 5 -15
7 -44 3 -63z m662 -81 c-12 -192 -70 -328 -191 -449 -111 -111 -262 -174 -419
-174 l-75 0 -17 52 c-15 45 -15 60 -5 104 12 50 13 51 49 50 30 -1 36 2 36 19
0 14 -8 21 -27 23 -34 4 -27 32 7 32 45 0 78 19 72 40 -5 18 0 20 41 20 67 0
179 26 237 54 95 47 219 179 271 289 10 20 20 37 22 37 3 0 2 -44 -1 -97z
m-974 47 c4 0 5 5 2 10 -14 23 10 7 62 -42 52 -50 104 -128 85 -128 -5 0 -35
36 -66 80 -32 44 -62 80 -67 80 -5 0 19 -38 53 -85 34 -47 65 -85 70 -85 4 0
8 -5 8 -11 0 -17 -102 72 -119 105 -9 15 -27 45 -40 65 -12 20 -17 30 -10 24
7 -7 17 -13 22 -13z m483 -88 c-14 -14 -16 -14 -16 -1 0 20 23 44 29 28 2 -6
-4 -18 -13 -27z m-58 -22 c3 -21 2 -22 -12 -11 -19 16 -21 44 -3 39 6 -3 14
-15 15 -28z m-212 -80 l-13 -75 -6 65 c-5 53 -3 67 10 77 9 7 18 12 19 10 2
-1 -3 -36 -10 -77z m297 73 c-7 -2 -19 -2 -25 0 -7 3 -2 5 12 5 14 0 19 -2 13
-5z m-139 -39 c3 -9 6 -23 6 -32 -1 -15 -3 -14 -15 2 -17 22 -20 46 -6 46 5 0
12 -7 15 -16z m99 -21 c-7 -2 -21 -2 -30 0 -10 3 -4 5 12 5 17 0 24 -2 18 -5z
m-139 -49 c3 -9 6 -23 6 -31 0 -13 -3 -13 -15 -3 -16 13 -21 50 -6 50 5 0 12
-7 15 -16z m104 -41 c2 -9 -8 -13 -33 -13 -33 0 -36 2 -25 15 15 18 51 16 58
-2z m-361 -65 c14 -16 38 -107 30 -115 -5 -5 -65 89 -77 122 -6 15 -13 26 -15
23 -8 -7 23 -77 49 -112 40 -54 40 -62 -1 -23 -38 36 -80 128 -67 149 6 10 58
-18 81 -44z m222 22 c10 -31 4 -39 -17 -18 -14 14 -16 48 -3 48 5 0 14 -13 20
-30z m-39 -14 c0 -8 9 -20 21 -27 16 -11 18 -19 12 -37 l-9 -24 -12 26 c-12
26 -45 35 -57 15 -12 -18 5 -59 29 -70 22 -10 23 -13 11 -52 -7 -23 -19 -43
-28 -45 -8 -2 -21 -16 -27 -33 -7 -16 -17 -32 -23 -36 -18 -11 10 231 34 293
7 21 12 23 29 14 11 -6 20 -17 20 -24z m100 -6 c0 -5 -4 -10 -10 -10 -5 0 -10
5 -10 10 0 6 5 10 10 10 6 0 10 -4 10 -10z m35 -19 c6 -11 -1 -16 -37 -25 -34
-8 -37 7 -5 22 28 14 35 14 42 3z m-139 -46 c4 -14 4 -28 1 -31 -9 -9 -36 27
-31 41 9 23 23 18 30 -10z m94 -45 c0 -5 -12 -10 -26 -10 -14 0 -23 4 -19 10
3 6 15 10 26 10 10 0 19 -4 19 -10z m-283 -177 c66 -94 73 -115 23 -68 -43 42
-70 83 -70 110 0 8 2 15 4 15 2 0 21 -26 43 -57z m144 -59 c-6 -24 -11 -77
-11 -119 0 -42 -4 -74 -9 -71 -15 10 -34 123 -26 163 4 21 16 61 28 88 l22 50
3 -34 c2 -19 -1 -54 -7 -77z m49 48 c14 -51 12 -102 -9 -202 -17 -85 -17 -85
-29 -51 -15 41 -16 150 -2 186 5 14 11 46 12 69 3 51 13 50 28 -2z m-110 -62
c0 -11 -2 -20 -5 -20 -2 0 -9 9 -15 20 -9 16 -8 20 5 20 8 0 15 -9 15 -20z
m320 -34 c0 -2 -37 -33 -83 -69 -45 -36 -89 -73 -97 -83 -16 -19 20 6 128 89
34 27 62 45 62 40 0 -18 -141 -138 -183 -156 -23 -10 -37 -13 -30 -6 6 6 9 17
7 23 -3 7 13 32 35 55 23 24 47 54 55 66 8 13 32 26 58 32 24 6 44 11 46 12 1
0 2 -1 2 -3z"/>
<path d="M767 2113 c-3 -5 8 -21 24 -36 16 -16 29 -24 29 -19 0 5 -7 15 -15
22 -8 7 -15 19 -15 26 0 15 -16 19 -23 7z"/>
<path d="M1053 1934 c-32 -41 -75 -96 -95 -122 -36 -46 -48 -69 -29 -57 9 5
171 217 185 243 19 33 -9 4 -61 -64z"/>
<path d="M590 1217 c24 -26 46 -47 48 -47 8 0 -34 47 -62 69 -21 16 -16 9 14
-22z"/>
</g>
</svg>
