<svg width="203" height="109" viewBox="0 0 203 109" fill="none" xmlns="http://www.w3.org/2000/svg">
<path d="M2 39.8531C12.4482 39.8531 20.0658 35.6449 26.7436 29.858M26.7436 29.858C27.9362 28.8245 29.0989 27.7406 30.2423 26.6213C35.3577 21.614 35.1879 0.874469 23.7249 2.04787C19.1771 2.5134 22.358 14.7256 26.7436 29.858ZM26.7436 29.858C34.1173 55.3012 44.8964 89 28.0698 89M49.223 24C48.757 28.0113 44.5276 34.9216 41.5431 38.0617C39.2258 40.4998 33.4757 42.1132 33.0099 45.7222C32.475 49.8661 53.8587 58 58 58M45 44C47.965 47.5409 47.5967 54.246 50.1358 58.4815C52.3656 62.201 51.0725 65.7232 52.9444 69.3C55.9745 75.0897 58 83.3865 58 90M46 44.7292C47.4211 38.4049 66.7113 36.5569 71.5825 39.1072C79.1428 43.0654 70.0865 57.4566 65.5631 59.9417C59.763 63.1283 45.3489 65.5637 61.0485 65.5637H77.5183C82.8109 65.5637 82.1165 67.1032 82.1165 71.8472C82.1165 78.2362 76.9684 84.5397 70.7323 88.4057M70.7323 88.4057C61.1542 94.3434 49.0097 94.5308 49.0097 80.4456C49.0097 73.8731 58.4456 81.2993 61.1321 82.7605C64.5102 84.5979 67.6666 86.5052 70.7323 88.4057ZM70.7323 88.4057C80.5452 94.4889 89.4291 100.502 101.68 103.926C128.825 111.512 159.967 104.147 184.53 91.7723C189.606 89.2152 197.821 85.1618 201 80.4456" stroke="#131520" stroke-width="3" stroke-linecap="round"/>
</svg>
